<?xml version="1.0" encoding="UTF-8" standalone="no"?>
<!DOCTYPE svg PUBLIC "-//W3C//DTD SVG 1.1//EN" "http://www.w3.org/Graphics/SVG/1.1/DTD/svg11.dtd">
<svg version="1.1" xmlns="http://www.w3.org/2000/svg" xmlns:xlink="http://www.w3.org/1999/xlink" preserveAspectRatio="xMidYMid meet" viewBox="0 0 640 640" width="640" height="640"><defs><path d="M145.66 123.42L127.85 105.61L110.04 87.81L92.14 105.75L74.2 123.66L92 141.46L109.81 159.27L83.1 185.98L56.39 212.69L74.34 230.59L92.24 248.54L74.34 266.44L56.39 284.39L74.2 302.19L92 320L136.61 275.39L181.27 230.73L288.44 337.95L395.66 445.12L351 489.78L306.39 534.39L324.2 552.19L342 570L359.9 552.05L377.85 534.15L395.75 552.05L413.7 570L440.41 543.29L467.12 516.58L484.93 534.39L502.73 552.19L520.63 534.25L538.58 516.34L520.78 498.54L502.97 480.73L529.68 454.02L556.39 427.31L538.44 409.36L520.54 391.46L538.44 373.51L556.39 355.61L538.58 337.81L520.78 320L476.16 364.61L431.51 409.27L324.34 302.05L217.12 194.88L261.78 150.22L306.39 105.61L288.58 87.81L270.78 70L252.83 87.95L234.93 105.85C224.24 95.16 218.31 89.23 217.12 88.04C207.33 78.25 199.22 70.23 199.08 70.23C198.94 70.23 186.9 82.18 172.27 96.8C168.73 100.35 159.85 109.23 145.66 123.42Z" id="b1TsCNpIYp"></path><linearGradient id="gradientcOH9B3wie" gradientUnits="userSpaceOnUse" x1="101.94" y1="175.56" x2="523.06" y2="481.11"><stop style="stop-color: #fa0347;stop-opacity: 1" offset="0%"></stop><stop style="stop-color: #fc561c;stop-opacity: 1" offset="100%"></stop></linearGradient></defs><g><g><g><use xlink:href="#b1TsCNpIYp" opacity="1" fill="url(#gradientcOH9B3wie)"></use><g><use xlink:href="#b1TsCNpIYp" opacity="1" fill-opacity="0" stroke="#000000" stroke-width="1" stroke-opacity="0"></use></g></g></g></g></svg>